<?xml version="1.0" standalone="no"?><!-- Generator: Gravit.io --><svg xmlns="http://www.w3.org/2000/svg" xmlns:xlink="http://www.w3.org/1999/xlink" style="isolation:isolate" viewBox="0 0 401.555 148.367" width="401.555" height="148.367"><defs><clipPath id="_clipPath_e8qxBzRp3oAK6mlnJBb3hfALMvZN5uLi"><rect width="401.555" height="148.367"/></clipPath></defs><g clip-path="url(#_clipPath_e8qxBzRp3oAK6mlnJBb3hfALMvZN5uLi)"><path d=" M 85.928 21.666 C 70.74 36.35 70.192 60.937 84.898 77.102 C 99.654 93.321 124.297 95.051 140.344 81.164 L 85.928 21.666 L 85.928 21.666 Z " fill="rgb(195,207,217)"/><path d=" M 36.276 94.339 L 89.897 54.009 L 59.889 14.112 C 48.673 -0.801 28.358 -4.483 14.554 5.899 L 12.754 7.254 C -2.043 18.383 -4.294 40.399 7.732 56.388 L 36.276 94.339 Z " fill-rule="evenodd" fill="rgb(29,120,138)"/><path d=" M 89.979 54.074 L 36.801 94.986 L 67.243 134.554 C 78.621 149.343 98.975 152.804 112.665 142.271 L 114.45 140.897 C 129.125 129.607 131.135 107.568 118.936 91.712 L 89.979 54.074 Z " fill-rule="evenodd" fill="rgb(201,218,221)"/><path d=" M 88.024 20.067 C 88.305 19.793 88.594 19.524 88.887 19.259 C 104.956 4.731 130.123 6.342 145.051 22.855 C 159.98 39.367 159.054 64.568 142.985 79.096 C 142.744 79.314 142.501 79.528 142.254 79.735 L 88.024 20.067 L 88.024 20.067 Z " fill="rgb(195,207,217)"/><path d=" M 9.952 44.435 C 8.175 41.972 6.902 39.086 6.321 35.901 C 4.241 24.499 11.809 13.553 23.211 11.473 C 24.144 11.303 25.074 11.197 25.995 11.161 L 9.952 44.435 L 9.952 44.435 Z " fill="rgb(255,255,255)"/><path d=" M 170.587 102.53 L 170.587 50.762 L 211.699 50.762 L 211.699 50.762 Q 216.091 50.762 219.259 53.894 L 219.259 53.894 L 219.259 53.894 Q 222.427 57.026 222.427 61.418 L 222.427 61.418 L 222.427 74.81 L 222.427 74.81 Q 222.427 79.202 219.259 82.334 L 219.259 82.334 L 219.259 82.334 Q 216.091 85.466 211.699 85.466 L 211.699 85.466 L 181.747 85.538 L 181.747 85.538 Q 181.963 85.538 181.963 85.97 L 181.963 85.97 L 181.963 85.97 Q 181.819 85.97 181.747 85.898 L 181.747 85.898 L 181.747 102.53 L 170.587 102.53 L 170.587 102.53 Z  M 211.123 61.922 L 181.747 61.922 L 181.747 74.234 L 211.123 74.234 L 211.123 61.922 L 211.123 61.922 Z  M 227.539 102.53 L 227.539 50.762 L 268.651 50.762 L 268.651 50.762 Q 273.043 50.762 276.211 53.894 L 276.211 53.894 L 276.211 53.894 Q 279.379 57.026 279.379 61.418 L 279.379 61.418 L 279.379 74.81 L 279.379 74.81 Q 279.379 79.202 276.211 82.334 L 276.211 82.334 L 276.211 82.334 Q 273.043 85.466 268.651 85.466 L 268.651 85.466 L 238.699 85.538 L 238.699 85.538 Q 238.915 85.538 238.915 85.97 L 238.915 85.97 L 238.915 85.97 Q 238.771 85.97 238.699 85.898 L 238.699 85.898 L 238.699 102.53 L 227.539 102.53 L 227.539 102.53 Z  M 268.075 61.922 L 238.699 61.922 L 238.699 74.234 L 268.075 74.234 L 268.075 61.922 L 268.075 61.922 Z  M 336.259 61.418 L 336.259 61.418 L 336.259 74.81 L 336.259 74.81 Q 336.259 79.202 333.091 82.334 L 333.091 82.334 L 333.091 82.334 Q 329.923 85.466 325.531 85.466 L 325.531 85.466 L 325.027 85.466 L 336.259 98.714 L 336.259 102.53 L 324.739 102.53 L 310.411 85.466 L 295.579 85.538 L 295.579 85.538 Q 295.795 85.538 295.795 85.97 L 295.795 85.97 L 295.795 85.97 Q 295.651 85.97 295.579 85.898 L 295.579 85.898 L 295.579 102.53 L 284.419 102.53 L 284.419 50.762 L 325.531 50.762 L 325.531 50.762 Q 329.923 50.762 333.091 53.894 L 333.091 53.894 L 333.091 53.894 Q 336.259 57.026 336.259 61.418 Z  M 324.955 61.922 L 295.579 61.922 L 295.579 74.234 L 324.955 74.234 L 324.955 61.922 L 324.955 61.922 Z  M 395.371 61.346 L 395.371 61.346 L 395.371 66.17 L 384.067 66.17 L 384.067 61.922 L 354.691 61.922 L 354.691 70.994 L 384.715 70.994 L 384.715 70.994 Q 389.107 70.994 392.239 74.126 L 392.239 74.126 L 392.239 74.126 Q 395.371 77.258 395.371 81.65 L 395.371 81.65 L 395.371 91.874 L 395.371 91.874 Q 395.371 96.266 392.239 99.398 L 392.239 99.398 L 392.239 99.398 Q 389.107 102.53 384.715 102.53 L 384.715 102.53 L 354.187 102.53 L 354.187 102.53 Q 349.795 102.53 346.663 99.434 L 346.663 99.434 L 346.663 99.434 Q 343.531 96.338 343.531 91.874 L 343.531 91.874 L 343.531 87.05 L 354.691 87.05 L 354.691 91.298 L 384.067 91.298 L 384.067 82.226 L 354.187 82.226 L 354.187 82.226 Q 349.795 82.226 346.663 79.13 L 346.663 79.13 L 346.663 79.13 Q 343.531 76.034 343.531 71.57 L 343.531 71.57 L 343.531 61.346 L 343.531 61.346 Q 343.531 56.882 346.663 53.786 L 346.663 53.786 L 346.663 53.786 Q 349.795 50.69 354.187 50.69 L 354.187 50.69 L 384.715 50.69 L 384.715 50.69 Q 389.107 50.69 392.239 53.822 L 392.239 53.822 L 392.239 53.822 Q 395.371 56.954 395.371 61.346 Z " fill-rule="evenodd" fill="rgb(29,120,138)"/></g></svg>